<svg xmlns="http://www.w3.org/2000/svg" width="39.931" height="39.932" viewBox="0 0 39.931 39.932">
  <g id="Group_137" data-name="Group 137" transform="translate(-404 -7371.98)">
    <path id="Rectangle_65" data-name="Rectangle 65" d="M19.965,0h0a0,0,0,0,1,0,0V39.931a0,0,0,0,1,0,0h0A19.965,19.965,0,0,1,0,19.965v0A19.965,19.965,0,0,1,19.965,0Z" transform="translate(404 7411.912) rotate(-90)" fill="#2e70f3" opacity="0.2"/>
    <path id="Rectangle_66" data-name="Rectangle 66" d="M19.965,0h0a0,0,0,0,1,0,0V39.931a0,0,0,0,1,0,0h0A19.965,19.965,0,0,1,0,19.965v0A19.965,19.965,0,0,1,19.965,0Z" transform="translate(443.931 7371.98) rotate(90)" fill="#00b2ff"/>
    <ellipse id="Ellipse_11" data-name="Ellipse 11" cx="13.013" cy="13.013" rx="13.013" ry="13.013" transform="translate(411.131 7378.755)" fill="#2e71f2"/>
    <path id="Path_43" data-name="Path 43" d="M2210,7365.379v8.518h7.592" transform="translate(-1785.856 18.049)" fill="none" stroke="#fff" stroke-width="3.5"/>
  </g>
</svg>
