<svg xmlns="http://www.w3.org/2000/svg" xmlns:xlink="http://www.w3.org/1999/xlink" width="169.885" height="45.27" viewBox="0 0 169.885 45.27">
  <defs>
    <clipPath id="clip-path">
      <path id="Path_16" data-name="Path 16" d="M0,.726V5.933H8.185V28.309h6.239V5.933h8.165V.726Z" transform="translate(0 -0.726)" fill="#080c4c"/>
    </clipPath>
    <clipPath id="clip-path-2">
      <path id="Path_17" data-name="Path 17" d="M25.388,5.934H29.4c2.233,0,3.583.029,4.008.087a3.128,3.128,0,0,1,1.9.949,2.883,2.883,0,0,1,.659,1.981,3.15,3.15,0,0,1-.506,1.836A2.639,2.639,0,0,1,34.071,11.8a20.288,20.288,0,0,1-4.9.313H25.388ZM19.149.726V28.309h6.239V17.066h.8a9.1,9.1,0,0,1,2.691.285,3.942,3.942,0,0,1,1.543,1.036,37.707,37.707,0,0,1,2.9,3.916l4.126,6.005h7.443L41.2,22.555a31.187,31.187,0,0,0-3.208-4.424,12.673,12.673,0,0,0-2.306-1.861,8.689,8.689,0,0,0,4.783-2.444A7.438,7.438,0,0,0,42.38,8.6a7.96,7.96,0,0,0-1.258-4.416,6.657,6.657,0,0,0-3.374-2.713A20.893,20.893,0,0,0,31.207.726Z" transform="translate(-19.149 -0.726)" fill="#080c4c"/>
    </clipPath>
    <clipPath id="clip-path-3">
      <path id="Path_18" data-name="Path 18" d="M55.263.726V15.955a29.742,29.742,0,0,1-.238,4.52A3.38,3.38,0,0,1,53.7,22.6a5.413,5.413,0,0,1-3.365.874,5.736,5.736,0,0,1-3.476-.933,4,4,0,0,1-1.578-2.458,29.415,29.415,0,0,1-.2-4.441V.726H38.839v14.7a32.255,32.255,0,0,0,.556,6.91A7.66,7.66,0,0,0,41.02,25.45a8.885,8.885,0,0,0,3.352,2.41,16.007,16.007,0,0,0,6.128.918,14.872,14.872,0,0,0,5.435-.841,8.83,8.83,0,0,0,3.371-2.286,7.881,7.881,0,0,0,1.739-3.522A36.111,36.111,0,0,0,61.5,15.2V.726Z" transform="translate(-38.839 -0.726)" fill="#080c4c"/>
    </clipPath>
    <clipPath id="clip-path-4">
      <path id="Path_19" data-name="Path 19" d="M58.209.726V28.309H79.857V23.118H64.446V16.441H78.294v-5.19H64.446V5.933H79.331V.726Z" transform="translate(-58.209 -0.726)" fill="#080c4c"/>
    </clipPath>
    <clipPath id="clip-path-5">
      <path id="Path_20" data-name="Path 20" d="M106.645,21.929a3.656,3.656,0,0,1-1.091-2.708,3.594,3.594,0,0,1,1.091-2.7,4.418,4.418,0,0,1,5.762,0,3.538,3.538,0,0,1,1.093,2.7,3.6,3.6,0,0,1-1.093,2.708,4.471,4.471,0,0,1-5.762,0M129.669,0A9.862,9.862,0,0,0,124.4,1.4a10.235,10.235,0,0,0-3.4,3.564,14.649,14.649,0,0,0-1.68,4.731,28.659,28.659,0,0,0-.454,4.4,8.272,8.272,0,0,0-.989-1.282,9.051,9.051,0,0,0-2.925-2,9.69,9.69,0,0,0-3.78-.723,7.03,7.03,0,0,0-.84.048L116.723.623h-8.416l-6.249,9.528c-.437.706-.872,1.379-1.275,2.037a13.4,13.4,0,0,0-1.093,2.119,13.532,13.532,0,0,0-.758,2.366,6.612,6.612,0,0,0-.151.807,5.868,5.868,0,0,0-.787-1.331,6.118,6.118,0,0,0-2.605-1.94,5.673,5.673,0,0,0,2.285-1.79A6.785,6.785,0,0,0,99,8.229a7.674,7.674,0,0,0-.821-3.612,7.68,7.68,0,0,0-2.218-2.53A9.457,9.457,0,0,0,92.786.623a15.305,15.305,0,0,0-3.7-.458,15.877,15.877,0,0,0-3.46.376,10.7,10.7,0,0,0-3.04,1.2A7.95,7.95,0,0,0,80.2,3.893a8.677,8.677,0,0,0-1.5,3.186l-.133.51L86.066,9.1l.115-.477a2.854,2.854,0,0,1,1.01-1.544,2.973,2.973,0,0,1,1.949-.607,3.317,3.317,0,0,1,2.134.689A2.046,2.046,0,0,1,92.079,8.8a2.392,2.392,0,0,1-.3,1.3,2.14,2.14,0,0,1-.856.738,3.932,3.932,0,0,1-1.278.4,9.577,9.577,0,0,1-1.53.113H85.679v6h1.881c.639,0,1.293.016,1.931.049a5.292,5.292,0,0,1,1.614.329,2.147,2.147,0,0,1,1.443,2.268,3.017,3.017,0,0,1-.789,2.184,3.263,3.263,0,0,1-2.468.805,3.706,3.706,0,0,1-2.5-.707,3.636,3.636,0,0,1-1.125-2.036l-.1-.511-7.207,1.659.1.477a8.7,8.7,0,0,0,3.78,5.653,12.351,12.351,0,0,0,6.7,1.774,15.93,15.93,0,0,0,4.018-.511,10.124,10.124,0,0,0,3.341-1.61,7.985,7.985,0,0,0,2.318-2.727A6.688,6.688,0,0,0,99.22,22.8a6.534,6.534,0,0,0,.266.692,9.3,9.3,0,0,0,2.337,3.086,10.2,10.2,0,0,0,3.445,2,13.1,13.1,0,0,0,8.5,0,10.369,10.369,0,0,0,3.462-1.988,9.55,9.55,0,0,0,2.337-3.1,7.655,7.655,0,0,0,.437-1.2,14.93,14.93,0,0,0,1.006,2.216,10.188,10.188,0,0,0,3.4,3.548,11.428,11.428,0,0,0,10.951,0,10.05,10.05,0,0,0,3.4-3.548,15.263,15.263,0,0,0,1.678-4.748,28.546,28.546,0,0,0,.471-5.026,26.134,26.134,0,0,0-.3-3.908,5.267,5.267,0,0,1-1.192-.345,6.444,6.444,0,0,1-1.444-.871l-4.336,4.237v.067c0,.295.017.575.017.821,0,.689-.031,1.545-.1,2.529a12.1,12.1,0,0,1-.5,2.728,5.11,5.11,0,0,1-1.192,2.085,3,3,0,0,1-3.948,0,5.377,5.377,0,0,1-1.177-2.085,12.312,12.312,0,0,1-.5-2.728c-.067-.967-.1-1.823-.1-2.529,0-.723.035-1.559.1-2.53a12.274,12.274,0,0,1,.5-2.742A5.355,5.355,0,0,1,127.9,7.376a3,3,0,0,1,3.948,0,5.207,5.207,0,0,1,1.192,2.086,13.966,13.966,0,0,1,.372,1.592l.05.33L136.715,8.2a6.562,6.562,0,0,1-.419-.756,5.439,5.439,0,0,1-.454-2.218,5.333,5.333,0,0,1,.454-2.218,5.387,5.387,0,0,1,.336-.641,10.6,10.6,0,0,0-1.279-.968A9.9,9.9,0,0,0,130.087,0Z" transform="translate(-78.353 -0.001)" fill="#080c4c"/>
    </clipPath>
    <clipPath id="clip-path-6">
      <path id="Path_21" data-name="Path 21" d="M126.429,7.434a2.848,2.848,0,0,1-.856-2.1,2.959,2.959,0,1,1,5.917,0,2.971,2.971,0,0,1-5.061,2.1M126.656.9a4.918,4.918,0,0,0-2.562,2.56,4.658,4.658,0,0,0-.376,1.878,4.634,4.634,0,0,0,.376,1.874,4.893,4.893,0,0,0,2.562,2.56,4.815,4.815,0,0,0,3.75,0,4.884,4.884,0,0,0,2.56-2.56,4.657,4.657,0,0,0,.377-1.874,4.68,4.68,0,0,0-.377-1.878A4.909,4.909,0,0,0,130.406.9a4.846,4.846,0,0,0-3.75,0" transform="translate(-123.718 -0.518)" fill="#080c4c"/>
    </clipPath>
  </defs>
  <g id="Logo" transform="translate(0 -0.669)">
    <g id="Group_19" data-name="Group 19" transform="translate(0 1.606)">
      <g id="Group_18" data-name="Group 18" clip-path="url(#clip-path)">
        <rect id="Rectangle_17" data-name="Rectangle 17" width="22.589" height="27.583" transform="translate(0)" fill="#080c4c"/>
      </g>
    </g>
    <g id="Group_21" data-name="Group 21" transform="translate(24.761 1.606)">
      <g id="Group_20" data-name="Group 20" clip-path="url(#clip-path-2)">
        <rect id="Rectangle_18" data-name="Rectangle 18" width="25.739" height="27.583" transform="translate(0 0)" fill="#080c4c"/>
      </g>
    </g>
    <g id="Group_23" data-name="Group 23" transform="translate(50.221 1.606)">
      <g id="Group_22" data-name="Group 22" clip-path="url(#clip-path-3)">
        <rect id="Rectangle_19" data-name="Rectangle 19" width="22.664" height="28.052" transform="translate(0 0)" fill="#080c4c"/>
      </g>
    </g>
    <g id="Group_25" data-name="Group 25" transform="translate(75.267 1.606)">
      <g id="Group_24" data-name="Group 24" clip-path="url(#clip-path-4)">
        <rect id="Rectangle_20" data-name="Rectangle 20" width="21.648" height="27.583" transform="translate(0 0)" fill="#080c4c"/>
      </g>
    </g>
    <g id="Group_27" data-name="Group 27" transform="translate(101.314 0.669)">
      <g id="Group_26" data-name="Group 26" clip-path="url(#clip-path-5)">
        <rect id="Rectangle_21" data-name="Rectangle 21" width="62.545" height="29.451" transform="translate(0 0)" fill="#080c4c"/>
      </g>
    </g>
    <g id="Group_29" data-name="Group 29" transform="translate(160.259 0.669)">
      <g id="Group_28" data-name="Group 28" clip-path="url(#clip-path-6)">
        <rect id="Rectangle_22" data-name="Rectangle 22" width="9.626" height="9.63" transform="translate(0 0)" fill="#080c4c"/>
      </g>
    </g>
    <path id="Path_72" data-name="Path 72" d="M11.016,1.034V2.1H7.994V10H6.762V2.1H3.74V1.034ZM11.98,1h1.1V4.348a3.172,3.172,0,0,1,.7-.7A2.368,2.368,0,0,1,15.105,3.3a1.959,1.959,0,0,1,1.929.995,3.393,3.393,0,0,1,.275,1.508V10H16.179V5.88A2.3,2.3,0,0,0,16,4.824a1.17,1.17,0,0,0-1.123-.537,1.871,1.871,0,0,0-1.239.47,2.26,2.26,0,0,0-.555,1.776V10h-1.1Zm9.674,2.313A2.982,2.982,0,0,1,23,3.643,2.487,2.487,0,0,1,24,4.489a2.916,2.916,0,0,1,.439,1.154,7.547,7.547,0,0,1,.1,1.44H19.744a2.8,2.8,0,0,0,.47,1.6,1.574,1.574,0,0,0,1.361.6,1.76,1.76,0,0,0,1.373-.568,1.914,1.914,0,0,0,.415-.763h1.08a2.275,2.275,0,0,1-.284.8,2.855,2.855,0,0,1-.54.723,2.56,2.56,0,0,1-1.239.659,3.764,3.764,0,0,1-.9.1,2.753,2.753,0,0,1-2.069-.888,3.455,3.455,0,0,1-.848-2.487A3.757,3.757,0,0,1,19.42,4.3,2.819,2.819,0,0,1,21.654,3.317ZM23.406,6.21a2.846,2.846,0,0,0-.311-1.141,1.6,1.6,0,0,0-1.508-.793,1.671,1.671,0,0,0-1.27.546,2.064,2.064,0,0,0-.543,1.389ZM33.281.79a3.674,3.674,0,0,1,2.643.9,3.169,3.169,0,0,1,1.044,2.039H35.784a2.464,2.464,0,0,0-.8-1.373,2.544,2.544,0,0,0-1.688-.507,2.706,2.706,0,0,0-2.139.931,4.243,4.243,0,0,0-.815,2.853,4.144,4.144,0,0,0,.735,2.554,2.57,2.57,0,0,0,2.194.98,2.318,2.318,0,0,0,2.045-1.031A3.923,3.923,0,0,0,35.869,6.7h1.184A4.046,4.046,0,0,1,36,9.078a3.735,3.735,0,0,1-2.881,1.154A3.8,3.8,0,0,1,30.5,9.286a4.929,4.929,0,0,1-1.4-3.864,4.935,4.935,0,0,1,1.05-3.253A3.835,3.835,0,0,1,33.281.79ZM39.226,8.26a.9.9,0,0,0,.348.751,1.29,1.29,0,0,0,.824.275,2.505,2.505,0,0,0,1.123-.269,1.511,1.511,0,0,0,.916-1.459V6.674a1.88,1.88,0,0,1-.519.214,4.421,4.421,0,0,1-.623.122l-.665.085a2.544,2.544,0,0,0-.9.25A.975.975,0,0,0,39.226,8.26Zm2.661-2.222a.6.6,0,0,0,.507-.317.966.966,0,0,0,.073-.421.892.892,0,0,0-.4-.815,2.145,2.145,0,0,0-1.144-.253A1.454,1.454,0,0,0,39.7,4.7a1.526,1.526,0,0,0-.262.763H38.414A1.887,1.887,0,0,1,39.2,3.777,3.22,3.22,0,0,1,40.947,3.3a3.558,3.558,0,0,1,1.874.439,1.491,1.491,0,0,1,.714,1.367V8.877a.482.482,0,0,0,.07.275.339.339,0,0,0,.3.1q.073,0,.165-.009t.2-.027v.812a3.06,3.06,0,0,1-.391.092,2.855,2.855,0,0,1-.366.018.9.9,0,0,1-.824-.4,1.555,1.555,0,0,1-.189-.6,2.8,2.8,0,0,1-.964.763,2.983,2.983,0,0,1-1.385.323,2.06,2.06,0,0,1-1.486-.552,1.835,1.835,0,0,1-.577-1.382,1.781,1.781,0,0,1,.568-1.41,2.7,2.7,0,0,1,1.489-.616Zm3.479-2.576H46.41V4.592a2.5,2.5,0,0,1,.629-.8,1.63,1.63,0,0,1,1.154-.473q.031,0,.1.006l.25.024v1.16a1.641,1.641,0,0,0-.18-.024q-.082-.006-.18-.006a1.568,1.568,0,0,0-1.276.534,1.864,1.864,0,0,0-.446,1.23V10h-1.1Zm8.026-2.429h1.227V10H53.392Zm3.052,2.429h1.044v.928a2.927,2.927,0,0,1,.983-.824,2.62,2.62,0,0,1,1.154-.25,1.9,1.9,0,0,1,1.88.97,3.446,3.446,0,0,1,.269,1.52V10H60.656V5.88a2.231,2.231,0,0,0-.177-.964,1.073,1.073,0,0,0-1.062-.61,2.162,2.162,0,0,0-.641.079,1.65,1.65,0,0,0-.793.537,1.617,1.617,0,0,0-.357.668,4.5,4.5,0,0,0-.082.986V10h-1.1Zm7.6,4.486a1.6,1.6,0,0,0,.275.842,1.726,1.726,0,0,0,1.44.531,2.124,2.124,0,0,0,1.074-.266.882.882,0,0,0,.464-.821A.7.7,0,0,0,66.93,7.6a4.427,4.427,0,0,0-.94-.311l-.873-.22A4.258,4.258,0,0,1,63.884,6.6a1.386,1.386,0,0,1-.708-1.233,1.884,1.884,0,0,1,.668-1.5,2.666,2.666,0,0,1,1.8-.574,2.5,2.5,0,0,1,2.13.867,1.881,1.881,0,0,1,.4,1.184H67.131a1.271,1.271,0,0,0-.262-.677,1.674,1.674,0,0,0-1.312-.433,1.569,1.569,0,0,0-.943.238.746.746,0,0,0-.32.629.774.774,0,0,0,.421.684,2.531,2.531,0,0,0,.72.269l.726.177a5.616,5.616,0,0,1,1.587.555,1.471,1.471,0,0,1,.641,1.324,2.018,2.018,0,0,1-.662,1.508,2.819,2.819,0,0,1-2.017.635,2.706,2.706,0,0,1-2.066-.662,2.5,2.5,0,0,1-.65-1.639ZM72.4,9.261a1.567,1.567,0,0,0,1.279-.644,3.064,3.064,0,0,0,.51-1.926,3.594,3.594,0,0,0-.226-1.343,1.655,1.655,0,0,0-3.125.061,4.524,4.524,0,0,0-.226,1.55,3.286,3.286,0,0,0,.226,1.288A1.558,1.558,0,0,0,72.4,9.261ZM69.561,3.494h1.068V4.36a2.667,2.667,0,0,1,.72-.69A2.318,2.318,0,0,1,72.655,3.3a2.456,2.456,0,0,1,1.886.851,3.488,3.488,0,0,1,.775,2.432A3.735,3.735,0,0,1,74.2,9.64a2.524,2.524,0,0,1-1.648.58A2.237,2.237,0,0,1,71.312,9.9a2.855,2.855,0,0,1-.653-.629v3.339h-1.1Zm9.76-.177a2.982,2.982,0,0,1,1.349.327,2.487,2.487,0,0,1,.995.845A2.916,2.916,0,0,1,82.1,5.642a7.548,7.548,0,0,1,.1,1.44H77.41a2.8,2.8,0,0,0,.47,1.6,1.574,1.574,0,0,0,1.361.6,1.76,1.76,0,0,0,1.373-.568,1.914,1.914,0,0,0,.415-.763h1.08a2.275,2.275,0,0,1-.284.8,2.855,2.855,0,0,1-.54.723,2.56,2.56,0,0,1-1.239.659,3.764,3.764,0,0,1-.9.1,2.753,2.753,0,0,1-2.069-.888,3.455,3.455,0,0,1-.848-2.487A3.757,3.757,0,0,1,77.086,4.3,2.819,2.819,0,0,1,79.32,3.317ZM81.072,6.21a2.846,2.846,0,0,0-.311-1.141,1.6,1.6,0,0,0-1.508-.793,1.671,1.671,0,0,0-1.27.546A2.064,2.064,0,0,0,77.44,6.21Zm5-2.936a2.85,2.85,0,0,1,1.8.537A2.573,2.573,0,0,1,88.7,5.66H87.633a1.972,1.972,0,0,0-.446-1,1.407,1.407,0,0,0-1.117-.4,1.543,1.543,0,0,0-1.5,1.025,4.073,4.073,0,0,0-.293,1.642,3.09,3.09,0,0,0,.415,1.654,1.609,1.609,0,0,0,2.39.253,2.3,2.3,0,0,0,.552-1.144H88.7a2.867,2.867,0,0,1-.916,1.9,2.856,2.856,0,0,1-1.874.6,2.5,2.5,0,0,1-2.045-.937A3.586,3.586,0,0,1,83.1,6.912a3.943,3.943,0,0,1,.836-2.679A2.7,2.7,0,0,1,86.071,3.274ZM90.02,1.638H91.13V3.463h1.044v.9H91.13V8.627a.462.462,0,0,0,.232.458.986.986,0,0,0,.427.067l.171,0q.092,0,.214-.015V10a2.452,2.452,0,0,1-.394.079,3.743,3.743,0,0,1-.443.024,1.193,1.193,0,0,1-1.044-.394,1.749,1.749,0,0,1-.275-1.022V4.36h-.885v-.9h.885Zm3.253,1.855H94.39V10H93.273Zm0-2.46H94.39V2.279H93.273Zm5.371,8.258a1.515,1.515,0,0,0,1.5-.827,4.12,4.12,0,0,0,.406-1.84,3.276,3.276,0,0,0-.293-1.489,1.648,1.648,0,0,0-1.6-.9A1.577,1.577,0,0,0,97.191,5a3.565,3.565,0,0,0-.458,1.855,3.1,3.1,0,0,0,.458,1.74A1.612,1.612,0,0,0,98.644,9.292Zm.043-6.018a2.96,2.96,0,0,1,2.136.842,3.289,3.289,0,0,1,.873,2.478,4.252,4.252,0,0,1-.769,2.612,2.782,2.782,0,0,1-2.386,1.031A2.694,2.694,0,0,1,96.4,9.326,3.6,3.6,0,0,1,95.6,6.875a3.9,3.9,0,0,1,.836-2.625A2.806,2.806,0,0,1,98.687,3.274ZM103,3.463h1.044v.928a2.927,2.927,0,0,1,.983-.824,2.62,2.62,0,0,1,1.154-.25,1.9,1.9,0,0,1,1.88.97,3.446,3.446,0,0,1,.269,1.52V10h-1.117V5.88a2.231,2.231,0,0,0-.177-.964,1.073,1.073,0,0,0-1.062-.61,2.162,2.162,0,0,0-.641.079,1.65,1.65,0,0,0-.793.537,1.617,1.617,0,0,0-.357.668,4.5,4.5,0,0,0-.082.986V10H103ZM117.351.79a3.674,3.674,0,0,1,2.643.9,3.169,3.169,0,0,1,1.044,2.039h-1.184a2.464,2.464,0,0,0-.8-1.373,2.544,2.544,0,0,0-1.688-.507,2.706,2.706,0,0,0-2.139.931,4.243,4.243,0,0,0-.815,2.853,4.144,4.144,0,0,0,.735,2.554,2.57,2.57,0,0,0,2.194.98,2.318,2.318,0,0,0,2.045-1.031,3.923,3.923,0,0,0,.555-1.428h1.184a4.046,4.046,0,0,1-1.05,2.374,3.735,3.735,0,0,1-2.881,1.154,3.8,3.8,0,0,1-2.625-.946,4.929,4.929,0,0,1-1.4-3.864,4.935,4.935,0,0,1,1.05-3.253A3.835,3.835,0,0,1,117.351.79Zm7.7,8.5a1.515,1.515,0,0,0,1.5-.827,4.12,4.12,0,0,0,.406-1.84,3.276,3.276,0,0,0-.293-1.489,1.648,1.648,0,0,0-1.6-.9A1.577,1.577,0,0,0,123.6,5a3.565,3.565,0,0,0-.458,1.855A3.1,3.1,0,0,0,123.6,8.6,1.612,1.612,0,0,0,125.048,9.292Zm.043-6.018a2.96,2.96,0,0,1,2.136.842,3.289,3.289,0,0,1,.873,2.478,4.251,4.251,0,0,1-.769,2.612,2.782,2.782,0,0,1-2.386,1.031,2.694,2.694,0,0,1-2.142-.912,3.6,3.6,0,0,1-.793-2.451,3.9,3.9,0,0,1,.836-2.625A2.806,2.806,0,0,1,125.09,3.274Zm4.315.189h1.086v.928a3.652,3.652,0,0,1,.708-.7,2.129,2.129,0,0,1,1.233-.372,1.94,1.94,0,0,1,1.257.385,2.01,2.01,0,0,1,.488.647,2.375,2.375,0,0,1,.861-.778,2.4,2.4,0,0,1,1.111-.253,1.817,1.817,0,0,1,1.794.952,3.112,3.112,0,0,1,.256,1.379V10h-1.141V5.459a1.058,1.058,0,0,0-.327-.9,1.292,1.292,0,0,0-.8-.244,1.581,1.581,0,0,0-1.114.433,1.9,1.9,0,0,0-.467,1.447V10h-1.117V5.734a2.217,2.217,0,0,0-.159-.97.968.968,0,0,0-.934-.458,1.611,1.611,0,0,0-1.132.482,2.363,2.363,0,0,0-.51,1.746V10h-1.1Zm13.171,5.8a1.567,1.567,0,0,0,1.279-.644,3.064,3.064,0,0,0,.51-1.926,3.594,3.594,0,0,0-.226-1.343,1.655,1.655,0,0,0-3.125.061,4.523,4.523,0,0,0-.226,1.55,3.286,3.286,0,0,0,.226,1.288A1.558,1.558,0,0,0,142.577,9.261Zm-2.844-5.768H140.8V4.36a2.667,2.667,0,0,1,.72-.69,2.318,2.318,0,0,1,1.306-.366,2.456,2.456,0,0,1,1.886.851,3.488,3.488,0,0,1,.775,2.432,3.735,3.735,0,0,1-1.117,3.052,2.524,2.524,0,0,1-1.648.58,2.237,2.237,0,0,1-1.239-.323,2.855,2.855,0,0,1-.653-.629v3.339h-1.1Zm7.88,4.767a.9.9,0,0,0,.348.751,1.29,1.29,0,0,0,.824.275,2.505,2.505,0,0,0,1.123-.269,1.511,1.511,0,0,0,.916-1.459V6.674a1.879,1.879,0,0,1-.519.214,4.421,4.421,0,0,1-.623.122l-.665.085a2.545,2.545,0,0,0-.9.25A.975.975,0,0,0,147.612,8.26Zm2.661-2.222a.6.6,0,0,0,.507-.317.966.966,0,0,0,.073-.421.892.892,0,0,0-.4-.815,2.145,2.145,0,0,0-1.144-.253,1.454,1.454,0,0,0-1.221.464,1.526,1.526,0,0,0-.262.763H146.8a1.887,1.887,0,0,1,.784-1.682,3.22,3.22,0,0,1,1.749-.473,3.558,3.558,0,0,1,1.874.439,1.491,1.491,0,0,1,.714,1.367V8.877a.482.482,0,0,0,.07.275.339.339,0,0,0,.3.1q.073,0,.165-.009t.2-.027v.812a3.06,3.06,0,0,1-.391.092,2.855,2.855,0,0,1-.366.018.9.9,0,0,1-.824-.4,1.555,1.555,0,0,1-.189-.6,2.8,2.8,0,0,1-.964.763,2.983,2.983,0,0,1-1.385.323,2.06,2.06,0,0,1-1.486-.552,1.835,1.835,0,0,1-.577-1.382,1.781,1.781,0,0,1,.568-1.41,2.7,2.7,0,0,1,1.489-.616Zm3.448-2.576h1.044v.928a2.927,2.927,0,0,1,.983-.824,2.621,2.621,0,0,1,1.154-.25,1.9,1.9,0,0,1,1.88.97,3.446,3.446,0,0,1,.269,1.52V10h-1.117V5.88a2.231,2.231,0,0,0-.177-.964,1.073,1.073,0,0,0-1.062-.61,2.162,2.162,0,0,0-.641.079,1.65,1.65,0,0,0-.793.537,1.617,1.617,0,0,0-.357.668,4.5,4.5,0,0,0-.082.986V10h-1.1Zm11.035,0h1.215q-.232.629-1.031,2.869-.6,1.685-1,2.747A18.568,18.568,0,0,1,162.6,12.13a1.535,1.535,0,0,1-1.343.549,2.635,2.635,0,0,1-.357-.018,2.82,2.82,0,0,1-.308-.067v-1a3.79,3.79,0,0,0,.415.1,1.62,1.62,0,0,0,.226.018.791.791,0,0,0,.449-.1.929.929,0,0,0,.241-.247q.031-.049.22-.5t.275-.671L160,3.463h1.245l1.752,5.322Z" transform="translate(-0.35 33.259)" fill="#30bcf9"/>
  </g>
</svg>
