<svg xmlns="http://www.w3.org/2000/svg" xmlns:xlink="http://www.w3.org/1999/xlink" width="137.7" height="38.89" viewBox="0 0 137.7 38.89">
  <defs>
    <clipPath id="clip-path">
      <path id="Path_16" data-name="Path 16" d="M0,.726V4.961H6.657v18.2h5.075V4.961h6.64V.726Z" transform="translate(0 -0.726)" fill="#00266a"/>
    </clipPath>
    <clipPath id="clip-path-2">
      <path id="Path_17" data-name="Path 17" d="M24.223,4.961h3.263c1.816,0,2.914.024,3.26.071a2.544,2.544,0,0,1,1.547.772,2.345,2.345,0,0,1,.536,1.611,2.562,2.562,0,0,1-.411,1.493,2.146,2.146,0,0,1-1.134.824,16.5,16.5,0,0,1-3.983.255H24.223ZM19.149.726V23.16h5.074V14.016h.647a7.4,7.4,0,0,1,2.189.232,3.206,3.206,0,0,1,1.255.843,30.668,30.668,0,0,1,2.36,3.185l3.356,4.884h6.053l-3-4.68a25.364,25.364,0,0,0-2.609-3.6A10.308,10.308,0,0,0,32.6,13.369a7.067,7.067,0,0,0,3.89-1.988A6.049,6.049,0,0,0,38.043,7.13,6.474,6.474,0,0,0,37.02,3.538a5.414,5.414,0,0,0-2.744-2.207,16.992,16.992,0,0,0-5.32-.606Z" transform="translate(-19.149 -0.726)" fill="#00266a"/>
    </clipPath>
    <clipPath id="clip-path-3">
      <path id="Path_18" data-name="Path 18" d="M52.2.726V13.112A24.19,24.19,0,0,1,52,16.788a2.749,2.749,0,0,1-1.081,1.729,4.4,4.4,0,0,1-2.736.711,4.665,4.665,0,0,1-2.827-.759,3.251,3.251,0,0,1-1.283-2,23.924,23.924,0,0,1-.163-3.612V.726H38.839V12.679a26.234,26.234,0,0,0,.452,5.62,6.23,6.23,0,0,0,1.322,2.535,7.226,7.226,0,0,0,2.726,1.96,13.019,13.019,0,0,0,4.984.747,12.1,12.1,0,0,0,4.42-.684A7.181,7.181,0,0,0,55.485,21,6.41,6.41,0,0,0,56.9,18.133a29.369,29.369,0,0,0,.372-5.633V.726Z" transform="translate(-38.839 -0.726)" fill="#00266a"/>
    </clipPath>
    <clipPath id="clip-path-4">
      <path id="Path_19" data-name="Path 19" d="M58.209.726V23.16H75.815V18.938H63.282V13.507H74.545V9.286H63.282V4.961H75.388V.726Z" transform="translate(-58.209 -0.726)" fill="#00266a"/>
    </clipPath>
    <clipPath id="clip-path-5">
      <path id="Path_21" data-name="Path 21" d="M125.856,5.972a2.246,2.246,0,0,1-.675-1.656,2.333,2.333,0,1,1,4.666,0,2.343,2.343,0,0,1-3.991,1.656m.179-5.156a3.878,3.878,0,0,0-2.02,2.019,3.673,3.673,0,0,0-.3,1.481,3.654,3.654,0,0,0,.3,1.478,3.859,3.859,0,0,0,2.02,2.019,3.8,3.8,0,0,0,2.957,0,3.852,3.852,0,0,0,2.019-2.019,3.672,3.672,0,0,0,.3-1.478,3.691,3.691,0,0,0-.3-1.481A3.871,3.871,0,0,0,128.992.816a3.822,3.822,0,0,0-2.957,0" transform="translate(-123.718 -0.518)" fill="#00b2ff"/>
    </clipPath>
    <clipPath id="clip-path-6">
      <path id="Path_20" data-name="Path 20" d="M101.363,17.835a2.973,2.973,0,0,1-.888-2.2,2.923,2.923,0,0,1,.888-2.192,3.594,3.594,0,0,1,4.686,0,2.878,2.878,0,0,1,.889,2.192,2.927,2.927,0,0,1-.889,2.2,3.636,3.636,0,0,1-4.686,0M120.089,0a8.021,8.021,0,0,0-4.283,1.134,8.324,8.324,0,0,0-2.762,2.9,11.914,11.914,0,0,0-1.366,3.848,23.31,23.31,0,0,0-.369,3.581,6.728,6.728,0,0,0-.8-1.043,7.362,7.362,0,0,0-2.379-1.628,7.881,7.881,0,0,0-3.074-.588,5.718,5.718,0,0,0-.684.039L109.56.507h-6.845L97.632,8.256c-.355.574-.709,1.122-1.037,1.657a10.9,10.9,0,0,0-.889,1.723,11.007,11.007,0,0,0-.616,1.924,5.376,5.376,0,0,0-.123.656,4.772,4.772,0,0,0-.64-1.083,4.976,4.976,0,0,0-2.119-1.577A4.614,4.614,0,0,0,94.066,10.1a5.518,5.518,0,0,0,1.079-3.407,6.241,6.241,0,0,0-.668-2.938,6.247,6.247,0,0,0-1.8-2.058A7.691,7.691,0,0,0,90.092.507,12.448,12.448,0,0,0,87.084.135,12.913,12.913,0,0,0,84.27.44a8.706,8.706,0,0,0-2.472.976,6.466,6.466,0,0,0-1.94,1.75A7.057,7.057,0,0,0,78.64,5.758l-.108.414L84.626,7.4l.094-.388a2.322,2.322,0,0,1,.821-1.256,2.418,2.418,0,0,1,1.585-.494,2.7,2.7,0,0,1,1.735.56,1.664,1.664,0,0,1,.655,1.336,1.945,1.945,0,0,1-.246,1.056,1.741,1.741,0,0,1-.7.6,3.2,3.2,0,0,1-1.039.323,7.789,7.789,0,0,1-1.244.092H84.312v4.876h1.53c.52,0,1.052.013,1.57.04a4.3,4.3,0,0,1,1.312.267A1.746,1.746,0,0,1,89.9,16.26a2.454,2.454,0,0,1-.642,1.776,2.654,2.654,0,0,1-2.008.655,3.014,3.014,0,0,1-2.036-.575A2.957,2.957,0,0,1,84.3,16.46l-.083-.415-5.862,1.349.082.388a7.074,7.074,0,0,0,3.074,4.6,10.045,10.045,0,0,0,5.452,1.443,12.956,12.956,0,0,0,3.268-.415A8.234,8.234,0,0,0,92.946,22.1a6.494,6.494,0,0,0,1.886-2.218,5.439,5.439,0,0,0,.493-1.336,5.319,5.319,0,0,0,.217.562,7.562,7.562,0,0,0,1.9,2.51,8.3,8.3,0,0,0,2.8,1.63,10.657,10.657,0,0,0,6.912,0,8.433,8.433,0,0,0,2.815-1.617,7.767,7.767,0,0,0,1.9-2.523,6.226,6.226,0,0,0,.355-.976,12.148,12.148,0,0,0,.818,1.8,8.286,8.286,0,0,0,2.762,2.885,9.295,9.295,0,0,0,8.906,0,8.173,8.173,0,0,0,2.762-2.885,12.414,12.414,0,0,0,1.365-3.861,23.216,23.216,0,0,0,.383-4.088,21.255,21.255,0,0,0-.246-3.179,4.284,4.284,0,0,1-.97-.281,5.241,5.241,0,0,1-1.175-.709l-3.526,3.446v.055c0,.24.014.468.014.667,0,.56-.025,1.257-.082,2.057a9.836,9.836,0,0,1-.41,2.219,4.156,4.156,0,0,1-.97,1.7,2.443,2.443,0,0,1-3.211,0,4.373,4.373,0,0,1-.957-1.7,10.014,10.014,0,0,1-.408-2.219c-.055-.787-.083-1.483-.083-2.057s.028-1.268.083-2.058a9.984,9.984,0,0,1,.408-2.23,4.355,4.355,0,0,1,.957-1.7,2.44,2.44,0,0,1,3.211,0,4.235,4.235,0,0,1,.97,1.7,11.361,11.361,0,0,1,.3,1.295l.041.268,2.649-2.592a5.334,5.334,0,0,1-.341-.615,4.423,4.423,0,0,1-.369-1.8,4.337,4.337,0,0,1,.369-1.8,4.383,4.383,0,0,1,.273-.521,8.617,8.617,0,0,0-1.04-.788A8.056,8.056,0,0,0,120.429,0Z" transform="translate(-78.353 -0.001)" fill="#00b2ff"/>
    </clipPath>
  </defs>
  <g id="Logo" transform="translate(0.05 -0.668)">
    <g id="Group_19" data-name="Group 19" transform="translate(-0.05 1.431)">
      <g id="Group_18" data-name="Group 18" clip-path="url(#clip-path)">
        <rect id="Rectangle_17" data-name="Rectangle 17" width="18.372" height="22.434" transform="translate(0)" fill="#00266a"/>
      </g>
    </g>
    <g id="Group_21" data-name="Group 21" transform="translate(20.088 1.431)">
      <g id="Group_20" data-name="Group 20" clip-path="url(#clip-path-2)">
        <rect id="Rectangle_18" data-name="Rectangle 18" width="20.934" height="22.434" transform="translate(0 0)" fill="#00266a"/>
      </g>
    </g>
    <g id="Group_23" data-name="Group 23" transform="translate(40.796 1.431)">
      <g id="Group_22" data-name="Group 22" clip-path="url(#clip-path-3)">
        <rect id="Rectangle_19" data-name="Rectangle 19" width="18.433" height="22.815" transform="translate(0 0)" fill="#00266a"/>
      </g>
    </g>
    <g id="Group_25" data-name="Group 25" transform="translate(61.166 1.431)">
      <g id="Group_24" data-name="Group 24" clip-path="url(#clip-path-4)">
        <rect id="Rectangle_20" data-name="Rectangle 20" width="17.607" height="22.434" transform="translate(0 0)" fill="#00266a"/>
      </g>
    </g>
    <g id="Group_29" data-name="Group 29" transform="translate(130.06 0.669)">
      <g id="Group_28" data-name="Group 28" clip-path="url(#clip-path-5)">
        <rect id="Rectangle_22" data-name="Rectangle 22" width="7.591" height="7.594" transform="translate(0 0)" fill="#00b2ff"/>
      </g>
    </g>
    <g id="Group_168" data-name="Group 168" transform="translate(2.145 0.669)">
      <g id="Group_27" data-name="Group 27" transform="translate(80.205)">
        <g id="Group_26" data-name="Group 26" clip-path="url(#clip-path-6)">
          <rect id="Rectangle_21" data-name="Rectangle 21" width="50.869" height="23.953" transform="translate(0 0)" fill="#00b2ff"/>
        </g>
      </g>
      <path id="Path_55" data-name="Path 55" d="M2.615.956h1.29V9.343H8.727v1.134H2.615ZM9.842,3.568h1.186v6.909H9.842Zm0-2.612h1.186V2.278H9.842Zm3.519,2.58,1.854,5.652,1.938-5.652H18.43l-2.619,6.942H14.567l-2.56-6.942Zm8.957-.156a3.166,3.166,0,0,1,1.432.347,2.641,2.641,0,0,1,1.056.9,3.1,3.1,0,0,1,.467,1.225,8.015,8.015,0,0,1,.1,1.53H20.29a2.969,2.969,0,0,0,.5,1.695,1.671,1.671,0,0,0,1.445.638,1.868,1.868,0,0,0,1.458-.6,2.032,2.032,0,0,0,.441-.81h1.147a2.416,2.416,0,0,1-.3.852,3.031,3.031,0,0,1-.574.768,2.719,2.719,0,0,1-1.316.7,4,4,0,0,1-.953.1,2.923,2.923,0,0,1-2.2-.943,3.669,3.669,0,0,1-.9-2.641,3.99,3.99,0,0,1,.907-2.716A2.993,2.993,0,0,1,22.319,3.38Zm1.86,3.072a3.023,3.023,0,0,0-.331-1.212,1.694,1.694,0,0,0-1.6-.843,1.775,1.775,0,0,0-1.348.58,2.191,2.191,0,0,0-.577,1.475Zm7.227-5.5,2.735,8.108,2.7-8.108h1.445l-3.474,9.521H33.448L29.98.956ZM41.517,3.38a3.166,3.166,0,0,1,1.432.347,2.641,2.641,0,0,1,1.056.9,3.1,3.1,0,0,1,.467,1.225,8.015,8.015,0,0,1,.1,1.53H39.488a2.969,2.969,0,0,0,.5,1.695,1.671,1.671,0,0,0,1.445.638,1.868,1.868,0,0,0,1.458-.6,2.032,2.032,0,0,0,.441-.81h1.147a2.416,2.416,0,0,1-.3.852,3.031,3.031,0,0,1-.574.768,2.719,2.719,0,0,1-1.316.7,4,4,0,0,1-.953.1,2.923,2.923,0,0,1-2.2-.943,3.669,3.669,0,0,1-.9-2.641,3.99,3.99,0,0,1,.907-2.716A2.993,2.993,0,0,1,41.517,3.38Zm1.86,3.072a3.023,3.023,0,0,0-.331-1.212,1.694,1.694,0,0,0-1.6-.843,1.775,1.775,0,0,0-1.348.58,2.191,2.191,0,0,0-.577,1.475ZM46.009.924h1.167V4.476a3.368,3.368,0,0,1,.745-.739,2.515,2.515,0,0,1,1.406-.369,2.08,2.08,0,0,1,2.048,1.056,3.6,3.6,0,0,1,.292,1.6v4.453h-1.2V6.1a2.447,2.447,0,0,0-.194-1.121,1.242,1.242,0,0,0-1.193-.57,1.987,1.987,0,0,0-1.316.5,2.4,2.4,0,0,0-.59,1.886v3.681H46.009Zm7.382,2.644h1.186v6.909H53.391Zm0-2.612h1.186V2.278H53.391Zm5.626,2.379a3.027,3.027,0,0,1,1.909.57,2.732,2.732,0,0,1,.885,1.964H60.676A2.094,2.094,0,0,0,60.2,4.8a1.5,1.5,0,0,0-1.186-.425,1.639,1.639,0,0,0-1.594,1.089,4.325,4.325,0,0,0-.311,1.744,3.281,3.281,0,0,0,.441,1.756,1.709,1.709,0,0,0,2.537.269,2.441,2.441,0,0,0,.587-1.215H61.81a3.045,3.045,0,0,1-.972,2.019,3.033,3.033,0,0,1-1.99.638,2.656,2.656,0,0,1-2.171-.995,3.808,3.808,0,0,1-.81-2.486,4.188,4.188,0,0,1,.888-2.845A2.869,2.869,0,0,1,59.017,3.335ZM63.01.956h1.167v9.521H63.01ZM68.817,3.38a3.166,3.166,0,0,1,1.432.347,2.641,2.641,0,0,1,1.056.9,3.1,3.1,0,0,1,.467,1.225,8.015,8.015,0,0,1,.1,1.53H66.788a2.969,2.969,0,0,0,.5,1.695,1.671,1.671,0,0,0,1.445.638,1.869,1.869,0,0,0,1.458-.6,2.032,2.032,0,0,0,.441-.81h1.147a2.416,2.416,0,0,1-.3.852,3.032,3.032,0,0,1-.574.768,2.719,2.719,0,0,1-1.316.7,4,4,0,0,1-.953.1,2.923,2.923,0,0,1-2.2-.943,3.669,3.669,0,0,1-.9-2.641,3.99,3.99,0,0,1,.907-2.716A2.993,2.993,0,0,1,68.817,3.38Zm1.86,3.072a3.023,3.023,0,0,0-.331-1.212,1.694,1.694,0,0,0-1.6-.843,1.775,1.775,0,0,0-1.348.58,2.191,2.191,0,0,0-.577,1.475Zm6.767-5.5h1.3v9.521h-1.3Zm3.241,2.58h1.108v.985a3.109,3.109,0,0,1,1.044-.875,2.783,2.783,0,0,1,1.225-.266,2.02,2.02,0,0,1,2,1.031,3.659,3.659,0,0,1,.285,1.614v4.453H85.157V6.1a2.369,2.369,0,0,0-.188-1.024,1.14,1.14,0,0,0-1.128-.648,2.3,2.3,0,0,0-.681.084,1.753,1.753,0,0,0-.843.57,1.717,1.717,0,0,0-.379.71,4.777,4.777,0,0,0-.088,1.047v3.636H80.684ZM88.76,8.3a1.7,1.7,0,0,0,.292.894,1.833,1.833,0,0,0,1.53.564,2.256,2.256,0,0,0,1.141-.282.936.936,0,0,0,.493-.872.745.745,0,0,0-.4-.681,4.7,4.7,0,0,0-1-.331l-.927-.233a4.521,4.521,0,0,1-1.309-.493,1.472,1.472,0,0,1-.752-1.309,2,2,0,0,1,.71-1.594,2.831,2.831,0,0,1,1.909-.609,2.65,2.65,0,0,1,2.262.92,2,2,0,0,1,.421,1.257h-1.1a1.35,1.35,0,0,0-.279-.719,1.777,1.777,0,0,0-1.394-.46,1.666,1.666,0,0,0-1,.253.792.792,0,0,0-.34.668A.822.822,0,0,0,89.467,6a2.687,2.687,0,0,0,.765.285L91,6.472a5.963,5.963,0,0,1,1.685.59,1.562,1.562,0,0,1,.681,1.406,2.143,2.143,0,0,1-.7,1.6,2.994,2.994,0,0,1-2.142.674,2.874,2.874,0,0,1-2.194-.7,2.659,2.659,0,0,1-.69-1.74Zm8.873,1.394a1.664,1.664,0,0,0,1.358-.684,3.254,3.254,0,0,0,.541-2.045,3.817,3.817,0,0,0-.24-1.426,1.757,1.757,0,0,0-3.319.065,4.8,4.8,0,0,0-.24,1.646,3.49,3.49,0,0,0,.24,1.368A1.654,1.654,0,0,0,97.633,9.693Zm-3.02-6.125h1.134v.92a2.832,2.832,0,0,1,.765-.732A2.462,2.462,0,0,1,97.9,3.367a2.608,2.608,0,0,1,2,.9,3.7,3.7,0,0,1,.823,2.583A3.966,3.966,0,0,1,99.539,10.1a2.68,2.68,0,0,1-1.75.616,2.375,2.375,0,0,1-1.316-.344A3.031,3.031,0,0,1,95.78,9.7v3.545H94.613Zm10.364-.188a3.166,3.166,0,0,1,1.432.347,2.641,2.641,0,0,1,1.056.9,3.1,3.1,0,0,1,.467,1.225,8.015,8.015,0,0,1,.1,1.53h-5.088a2.969,2.969,0,0,0,.5,1.695,1.671,1.671,0,0,0,1.445.638,1.868,1.868,0,0,0,1.458-.6,2.032,2.032,0,0,0,.441-.81h1.147a2.416,2.416,0,0,1-.3.852,3.031,3.031,0,0,1-.574.768,2.719,2.719,0,0,1-1.316.7,4,4,0,0,1-.953.1,2.923,2.923,0,0,1-2.2-.943,3.669,3.669,0,0,1-.9-2.641,3.99,3.99,0,0,1,.907-2.716A2.993,2.993,0,0,1,104.977,3.38Zm1.86,3.072a3.023,3.023,0,0,0-.331-1.212,1.694,1.694,0,0,0-1.6-.843,1.775,1.775,0,0,0-1.348.58,2.191,2.191,0,0,0-.577,1.475Zm5.308-3.118a3.027,3.027,0,0,1,1.909.57,2.732,2.732,0,0,1,.885,1.964H113.8a2.094,2.094,0,0,0-.473-1.066,1.5,1.5,0,0,0-1.186-.425,1.639,1.639,0,0,0-1.594,1.089,4.325,4.325,0,0,0-.311,1.744,3.281,3.281,0,0,0,.441,1.756,1.709,1.709,0,0,0,2.537.269,2.441,2.441,0,0,0,.587-1.215h1.134a3.045,3.045,0,0,1-.972,2.019,3.033,3.033,0,0,1-1.99.638,2.656,2.656,0,0,1-2.171-.995A3.808,3.808,0,0,1,109,7.2a4.188,4.188,0,0,1,.888-2.845A2.869,2.869,0,0,1,112.145,3.335ZM116.339,1.6h1.18V3.536h1.108v.953h-1.108V9.019a.49.49,0,0,0,.246.486,1.047,1.047,0,0,0,.454.071q.084,0,.181,0t.227-.016v.92a2.6,2.6,0,0,1-.418.084,3.974,3.974,0,0,1-.47.026,1.266,1.266,0,0,1-1.108-.418,1.858,1.858,0,0,1-.292-1.086v-4.6h-.94V3.536h.94Zm3.455,1.97h1.186v6.909h-1.186Zm0-2.612h1.186V2.278h-1.186Zm5.7,8.769a1.609,1.609,0,0,0,1.591-.878,4.375,4.375,0,0,0,.431-1.954,3.479,3.479,0,0,0-.311-1.581,1.75,1.75,0,0,0-1.7-.959,1.675,1.675,0,0,0-1.556.817,3.785,3.785,0,0,0-.486,1.97,3.293,3.293,0,0,0,.486,1.847A1.712,1.712,0,0,0,125.5,9.726Zm.045-6.391a3.143,3.143,0,0,1,2.269.894,3.493,3.493,0,0,1,.927,2.631,4.515,4.515,0,0,1-.817,2.774,2.954,2.954,0,0,1-2.534,1.1,2.861,2.861,0,0,1-2.275-.969,3.827,3.827,0,0,1-.843-2.6,4.141,4.141,0,0,1,.888-2.787A2.98,2.98,0,0,1,125.543,3.335Zm4.582.2h1.108v.985a3.109,3.109,0,0,1,1.044-.875A2.783,2.783,0,0,1,133.5,3.38a2.02,2.02,0,0,1,2,1.031,3.659,3.659,0,0,1,.285,1.614v4.453H134.6V6.1a2.369,2.369,0,0,0-.188-1.024,1.14,1.14,0,0,0-1.128-.648,2.3,2.3,0,0,0-.681.084,1.753,1.753,0,0,0-.843.57,1.717,1.717,0,0,0-.379.71,4.777,4.777,0,0,0-.087,1.047v3.636h-1.167Z" transform="translate(-2.615 25.645)" fill="#00b2ff"/>
    </g>
  </g>
</svg>
