<svg xmlns="http://www.w3.org/2000/svg" xmlns:xlink="http://www.w3.org/1999/xlink" width="50.869" height="23.954" viewBox="0 0 50.869 23.954">
  <defs>
    <clipPath id="clip-path">
      <path id="Path_20" data-name="Path 20" d="M101.363,17.835a2.973,2.973,0,0,1-.888-2.2,2.923,2.923,0,0,1,.888-2.192,3.594,3.594,0,0,1,4.686,0,2.878,2.878,0,0,1,.889,2.192,2.927,2.927,0,0,1-.889,2.2,3.636,3.636,0,0,1-4.686,0M120.089,0a8.021,8.021,0,0,0-4.283,1.134,8.324,8.324,0,0,0-2.762,2.9,11.914,11.914,0,0,0-1.366,3.848,23.31,23.31,0,0,0-.369,3.581,6.728,6.728,0,0,0-.8-1.043,7.362,7.362,0,0,0-2.379-1.628,7.881,7.881,0,0,0-3.074-.588,5.718,5.718,0,0,0-.684.039L109.56.507h-6.845L97.632,8.256c-.355.574-.709,1.122-1.037,1.657a10.9,10.9,0,0,0-.889,1.723,11.007,11.007,0,0,0-.616,1.924,5.376,5.376,0,0,0-.123.656,4.772,4.772,0,0,0-.64-1.083,4.976,4.976,0,0,0-2.119-1.577A4.614,4.614,0,0,0,94.066,10.1a5.518,5.518,0,0,0,1.079-3.407,6.241,6.241,0,0,0-.668-2.938,6.247,6.247,0,0,0-1.8-2.058A7.691,7.691,0,0,0,90.092.507,12.448,12.448,0,0,0,87.084.135,12.913,12.913,0,0,0,84.27.44a8.706,8.706,0,0,0-2.472.976,6.466,6.466,0,0,0-1.94,1.75A7.057,7.057,0,0,0,78.64,5.758l-.108.414L84.626,7.4l.094-.388a2.322,2.322,0,0,1,.821-1.256,2.418,2.418,0,0,1,1.585-.494,2.7,2.7,0,0,1,1.735.56,1.664,1.664,0,0,1,.655,1.336,1.945,1.945,0,0,1-.246,1.056,1.741,1.741,0,0,1-.7.6,3.2,3.2,0,0,1-1.039.323,7.789,7.789,0,0,1-1.244.092H84.312v4.876h1.53c.52,0,1.052.013,1.57.04a4.3,4.3,0,0,1,1.312.267A1.746,1.746,0,0,1,89.9,16.26a2.454,2.454,0,0,1-.642,1.776,2.654,2.654,0,0,1-2.008.655,3.014,3.014,0,0,1-2.036-.575A2.957,2.957,0,0,1,84.3,16.46l-.083-.415-5.862,1.349.082.388a7.074,7.074,0,0,0,3.074,4.6,10.045,10.045,0,0,0,5.452,1.443,12.956,12.956,0,0,0,3.268-.415A8.234,8.234,0,0,0,92.946,22.1a6.494,6.494,0,0,0,1.886-2.218,5.439,5.439,0,0,0,.493-1.336,5.319,5.319,0,0,0,.217.562,7.562,7.562,0,0,0,1.9,2.51,8.3,8.3,0,0,0,2.8,1.63,10.657,10.657,0,0,0,6.912,0,8.433,8.433,0,0,0,2.815-1.617,7.767,7.767,0,0,0,1.9-2.523,6.226,6.226,0,0,0,.355-.976,12.148,12.148,0,0,0,.818,1.8,8.286,8.286,0,0,0,2.762,2.885,9.295,9.295,0,0,0,8.906,0,8.173,8.173,0,0,0,2.762-2.885,12.414,12.414,0,0,0,1.365-3.861,23.216,23.216,0,0,0,.383-4.088,21.255,21.255,0,0,0-.246-3.179,4.284,4.284,0,0,1-.97-.281,5.241,5.241,0,0,1-1.175-.709l-3.526,3.446v.055c0,.24.014.468.014.667,0,.56-.025,1.257-.082,2.057a9.836,9.836,0,0,1-.41,2.219,4.156,4.156,0,0,1-.97,1.7,2.443,2.443,0,0,1-3.211,0,4.373,4.373,0,0,1-.957-1.7,10.014,10.014,0,0,1-.408-2.219c-.055-.787-.083-1.483-.083-2.057s.028-1.268.083-2.058a9.984,9.984,0,0,1,.408-2.23,4.355,4.355,0,0,1,.957-1.7,2.44,2.44,0,0,1,3.211,0,4.235,4.235,0,0,1,.97,1.7,11.361,11.361,0,0,1,.3,1.295l.041.268,2.649-2.592a5.334,5.334,0,0,1-.341-.615,4.423,4.423,0,0,1-.369-1.8,4.337,4.337,0,0,1,.369-1.8,4.383,4.383,0,0,1,.273-.521,8.617,8.617,0,0,0-1.04-.788A8.056,8.056,0,0,0,120.429,0Z" transform="translate(-78.353 -0.001)" fill="#00b2ff"/>
    </clipPath>
  </defs>
  <g id="Group_27" data-name="Group 27" transform="translate(0 0)">
    <g id="Group_26" data-name="Group 26" clip-path="url(#clip-path)">
      <rect id="Rectangle_21" data-name="Rectangle 21" width="50.869" height="23.953" transform="translate(0 0)" fill="#00b2ff"/>
    </g>
  </g>
</svg>
