<svg xmlns="http://www.w3.org/2000/svg" xmlns:xlink="http://www.w3.org/1999/xlink" width="7.591" height="7.594" viewBox="0 0 7.591 7.594">
  <defs>
    <clipPath id="clip-path">
      <path id="Path_21" data-name="Path 21" d="M125.856,5.972a2.246,2.246,0,0,1-.675-1.656,2.333,2.333,0,1,1,4.666,0,2.343,2.343,0,0,1-3.991,1.656m.179-5.156a3.878,3.878,0,0,0-2.02,2.019,3.673,3.673,0,0,0-.3,1.481,3.654,3.654,0,0,0,.3,1.478,3.859,3.859,0,0,0,2.02,2.019,3.8,3.8,0,0,0,2.957,0,3.852,3.852,0,0,0,2.019-2.019,3.672,3.672,0,0,0,.3-1.478,3.691,3.691,0,0,0-.3-1.481A3.871,3.871,0,0,0,128.992.816a3.822,3.822,0,0,0-2.957,0" transform="translate(-123.718 -0.518)" fill="#00b2ff"/>
    </clipPath>
  </defs>
  <g id="Group_29" data-name="Group 29" transform="translate(0 0)">
    <g id="Group_28" data-name="Group 28" clip-path="url(#clip-path)">
      <rect id="Rectangle_22" data-name="Rectangle 22" width="7.591" height="7.594" transform="translate(0 0)" fill="#00b2ff"/>
    </g>
  </g>
</svg>
