<svg xmlns="http://www.w3.org/2000/svg" width="226" height="226" viewBox="0 0 226 226">
  <g id="Group_147" data-name="Group 147" transform="translate(-1256 -9018)">
    <rect id="Rectangle_76" data-name="Rectangle 76" width="226" height="226" transform="translate(1256 9018)" fill="none"/>
    <path id="Subtraction_2" data-name="Subtraction 2" d="M101.491,202.241h-.371a101.865,101.865,0,0,1-20.379-2.054,100.567,100.567,0,0,1-36.158-15.215,101.417,101.417,0,0,1-36.636-44.49A100.615,100.615,0,0,1,2.054,121.5a102.112,102.112,0,0,1,0-40.759A100.57,100.57,0,0,1,17.27,44.583,101.414,101.414,0,0,1,61.759,7.947,100.611,100.611,0,0,1,80.741,2.054,101.864,101.864,0,0,1,101.12,0h.371v202.24Z" transform="translate(1268 9030.001)" fill="#2e71f2"/>
    <path id="Subtraction_3" data-name="Subtraction 3" d="M101.491,202.241h-.371a101.865,101.865,0,0,1-20.379-2.054,100.567,100.567,0,0,1-36.158-15.215,101.417,101.417,0,0,1-36.636-44.49A100.615,100.615,0,0,1,2.054,121.5a102.112,102.112,0,0,1,0-40.759A100.57,100.57,0,0,1,17.27,44.583,101.414,101.414,0,0,1,61.759,7.947,100.611,100.611,0,0,1,80.741,2.054,101.864,101.864,0,0,1,101.12,0h.371v202.24Z" transform="translate(1470.982 9232.241) rotate(180)" fill="#d4e2fc"/>
    <ellipse id="Ellipse_17" data-name="Ellipse 17" cx="63.009" cy="63.009" rx="63.009" ry="63.009" transform="translate(1306.611 9067.871)" fill="#fff"/>
    <path id="Path_49" data-name="Path 49" d="M38.208,103.547c0-13.924-11.774-18.019-22.421-20.783V68.431a28.185,28.185,0,0,1,12.7,6.655L36.57,64.438a35.551,35.551,0,0,0-20.783-9.112V45.6H6.061v9.521C-7.657,56.452-15.95,65.257-15.95,75.7c0,13.821,11.466,17.916,22.011,20.476v16.074a30.234,30.234,0,0,1-16.278-8.7L-18.1,114.6c5.631,5.631,13.412,9.726,24.161,10.647v9.214h9.726v-9.317C30.837,123.613,38.208,114.808,38.208,103.547ZM-1,74.471c0-3.686,2.764-6.348,7.986-6.859v13C2.273,79.385-1,77.645-1,74.471Zm15.869,38.085V98.223c4.914,1.433,8.5,3.174,8.5,6.962C23.364,108.563,20.7,111.737,14.866,112.556Z" transform="translate(1359.974 9041.31)" fill="#00b2ff"/>
  </g>
</svg>
