<svg xmlns="http://www.w3.org/2000/svg" width="148.438" height="156.911" viewBox="0 0 148.438 156.911">
  <g id="person" transform="translate(-867 -9027.383)">
    <path id="Subtraction_1" data-name="Subtraction 1" d="M103.747,123.727H0V109.684A43.537,43.537,0,0,1,7.476,85.229,43.922,43.922,0,0,1,26.728,69.374a43.433,43.433,0,0,1,17.022-3.44H59.994a43.541,43.541,0,0,1,24.456,7.476,43.919,43.919,0,0,1,15.857,19.251,43.431,43.431,0,0,1,3.441,17.023v14.042ZM51.874,60.5A30.256,30.256,0,0,1,40.1,2.377,30.256,30.256,0,0,1,63.648,58.12,30.06,30.06,0,0,1,51.874,60.5Z" transform="translate(889.345 9027.383)" fill="#2e71f2"/>
    <rect id="Rectangle_70" data-name="Rectangle 70" width="148.438" height="49.741" transform="translate(867 9134.553)" fill="#d4e2fc"/>
    <rect id="Rectangle_71" data-name="Rectangle 71" width="103.747" height="49.741" transform="translate(889.345 9134.553)" fill="#00b2ff"/>
    <rect id="Rectangle_72" data-name="Rectangle 72" width="7.981" height="23.942" transform="translate(937.229 9147.583)" fill="#fff"/>
    <rect id="Rectangle_73" data-name="Rectangle 73" width="7.981" height="23.942" transform="translate(929.248 9163.544) rotate(-90)" fill="#fff"/>
  </g>
</svg>
