<svg xmlns="http://www.w3.org/2000/svg" width="237.56" height="237.561" viewBox="0 0 237.56 237.561">
  <g id="Group_144" data-name="Group 144" transform="translate(-434.71 -8992.353)">
    <path id="Path_46" data-name="Path 46" d="M2937.916,9176.6l-8.55,19.818,25.479,25.479v-45.3Z" transform="translate(4887.547 598.31) rotate(45)" fill="#d5e2fd"/>
    <path id="Path_47" data-name="Path 47" d="M2946.294,9176.6l8.55,19.818-25.479,25.479v-45.3Z" transform="translate(4905.516 616.278) rotate(45)" fill="#2e71f2"/>
    <path id="Path_44" data-name="Path 44" d="M2969.656,8967.453s-83.842,75.135-26.961,185.824c1.848,1.184-25.7,12.481-25.7,44.973.426.535,20.344-23.086,52.656-23.086C2969.645,9175.422,2969.656,8967.453,2969.656,8967.453Z" transform="translate(4876.23 588.775) rotate(45)" fill="#2e71f2"/>
    <path id="Path_45" data-name="Path 45" d="M2917,8967.453s83.842,75.135,26.961,185.824c-1.848,1.184,25.7,12.481,25.7,44.973-.426.535-20.344-23.086-52.656-23.086C2917.012,9175.422,2917,8967.453,2917,8967.453Z" transform="translate(4913.353 625.898) rotate(45)" fill="#d5e2fd"/>
    <rect id="Rectangle_68" data-name="Rectangle 68" width="65" height="16" transform="translate(488.633 9129.918) rotate(45)" fill="#00b2ff"/>
    <circle id="Ellipse_12" data-name="Ellipse 12" cx="25" cy="25" r="25" transform="translate(547 9068)" fill="#fff"/>
    <circle id="Ellipse_13" data-name="Ellipse 13" cx="16" cy="16" r="16" transform="translate(556 9077)" fill="#00b2ff"/>
  </g>
</svg>
